<svg xmlns="http://www.w3.org/2000/svg" width="30" height="23" viewBox="0 0 30 23"><g><g><path fill="#ccc" d="M29 22.995H1a.99.99 0 0 1-1-.98V.973a.99.99 0 0 1 1-.978h28c.552 0 1 .44 1 .978v21.044a.99.99 0 0 1-1 .98zm-14.462-9.959c.39.382 1.023.382 1.414 0L28.277.972H2.213zm4.467-1.604L29 19.022V1.65c-2.178 2.13-6.87 6.723-9.995 9.782zM1 21.527c0 .27.224.489.5.489h27c.276 0 .5-.22.5-.49v-1.28L18.3 12.12l-2.35 2.3a1.015 1.015 0 0 1-1.413 0l-2.564-2.51L1 20.246zm0-2.504l10.27-7.8-10.205-9.99A.47.47 0 0 0 1 1.463z"/></g></g></svg>